<?xml version="1.0" encoding="UTF-8"?>
<svg width="1024px" height="1831px" viewBox="0 0 1024 1831" version="1.1" xmlns="http://www.w3.org/2000/svg" xmlns:xlink="http://www.w3.org/1999/xlink">
    <!-- Generator: Sketch 64 (93537) - https://sketch.com -->
    <title>Desktop Copy 4</title>
    <desc>Created with Sketch.</desc>
    <g id="Desktop-Copy-4" stroke="none" stroke-width="1" fill="none" fill-rule="evenodd">
        <g id="Group-11" transform="translate(77.000000, 1431.000000)"></g>
        <g id="Background" transform="translate(144.000000, 125.000000)">
            <path d="M415.346445,77 C418.568835,77 421.880736,76.6078704 425.282148,75.8236111 C428.68356,75.0393519 431.870146,73.8986111 434.841906,72.4013889 C437.813666,70.9041667 440.463187,69.050463 442.790469,66.8402778 C445.117751,64.6300926 446.854261,62.1347222 448,59.3541667 L448,59.3541667 L430.921331,49.1944444 C430.276853,50.9055556 429.399647,52.3493056 428.289713,53.5256944 C427.179778,54.7020833 425.926626,55.6645833 424.530257,56.4131944 C423.133888,57.1618056 421.683812,57.6965278 420.18003,58.0173611 C418.676248,58.3381944 417.20827,58.4986111 415.776097,58.4986111 C413.054967,58.4986111 410.60237,57.9460648 408.418306,56.8409722 C406.234241,55.7358796 404.390318,54.2564815 402.886536,52.4027778 C401.382753,50.5490741 400.237015,48.4101852 399.449319,45.9861111 C398.661624,43.562037 398.267776,41.0310185 398.267776,38.3930556 C398.267776,36.0402778 398.607917,33.6696759 399.2882,31.28125 C399.968482,28.8928241 401.006808,26.7539352 402.403177,24.8645833 C403.799546,22.9752315 405.589763,21.4423611 407.773828,20.2659722 C409.957892,19.0895833 412.553707,18.5013889 415.561271,18.5013889 C416.993444,18.5013889 418.479324,18.6439815 420.018911,18.9291667 C421.558497,19.2143519 423.044377,19.7134259 424.476551,20.4263889 C425.908724,21.1393519 427.215582,22.1018519 428.397126,23.3138889 C429.578669,24.5259259 430.527484,26.0587963 431.24357,27.9125 L431.24357,27.9125 L447.248109,16.5763889 C444.598588,11.5856481 440.5706,7.57523148 435.164145,4.54513889 C429.75769,1.5150463 423.366616,0 415.990923,0 C409.832577,0 404.354513,1.10509259 399.556732,3.31527778 C394.758951,5.52546296 390.677257,8.41296296 387.311649,11.9777778 C383.946041,15.5425926 381.386031,19.5708333 379.631619,24.0625 C377.877206,28.5541667 377,33.1171296 377,37.7513889 C377,42.599537 377.930913,47.3763889 379.792738,52.0819444 C381.654564,56.7875 384.286183,60.9939815 387.687595,64.7013889 C391.089007,68.4087963 395.134897,71.3854167 399.825265,73.63125 C404.515633,75.8770833 409.68936,77 415.346445,77 Z M489.339806,77 C494.964401,77 500.144013,75.9305556 504.878641,73.7916667 C509.613269,71.6527778 513.68932,68.81875 517.106796,65.2895833 C520.524272,61.7604167 523.194175,57.6965278 525.116505,53.0979167 C527.038835,48.4993056 528,43.7046296 528,38.7138889 C528,33.8657407 527.092233,29.124537 525.276699,24.4902778 C523.461165,19.8560185 520.880259,15.7208333 517.533981,12.0847222 C514.187702,8.44861111 510.165049,5.52546296 505.466019,3.31527778 C500.76699,1.10509259 495.533981,0 489.76699,0 C484.142395,0 478.962783,1.05162037 474.228155,3.15486111 C469.493528,5.25810185 465.399676,8.07430556 461.946602,11.6034722 C458.493528,15.1326389 455.805825,19.2143519 453.883495,23.8486111 C451.961165,28.4828704 451,33.2953704 451,38.2861111 C451,43.2055556 451.925566,47.9824074 453.776699,52.6166667 C455.627832,57.2509259 458.226537,61.368287 461.572816,64.96875 C464.919094,68.569213 468.941748,71.474537 473.640777,73.6847222 C478.339806,75.8949074 483.572816,77 489.339806,77 Z M489.553846,59 C486.538462,59 483.935897,58.42959 481.746154,57.2887701 C479.55641,56.1479501 477.74359,54.6506239 476.307692,52.7967914 C474.871795,50.942959 473.794872,48.8217469 473.076923,46.4331551 C472.358974,44.0445633 472,41.5668449 472,39 C472,36.5044563 472.341026,34.0623886 473.023077,31.6737968 C473.705128,29.285205 474.764103,27.1461676 476.2,25.2566845 C477.635897,23.3672014 479.448718,21.8520499 481.638462,20.7112299 C483.828205,19.57041 486.430769,19 489.446154,19 C492.389744,19 494.95641,19.5525847 497.146154,20.657754 C499.335897,21.7629234 501.166667,23.2245989 502.638462,25.0427807 C504.110256,26.8609626 505.205128,28.9643494 505.923077,31.3529412 C506.641026,33.741533 507,36.2192513 507,38.7860963 C507,41.2816399 506.658974,43.741533 505.976923,46.1657754 C505.294872,48.5900178 504.253846,50.7468806 502.853846,52.6363636 C501.453846,54.5258467 499.641026,56.0588235 497.415385,57.2352941 C495.189744,58.4117647 492.569231,59 489.553846,59 Z M556.981013,77 L556.981013,39.6422535 L587.322785,77 L604,77 L604,1 L583.018987,1 L583.018987,39.6422535 L552.35443,1 L536,1 L536,77 L556.981013,77 Z M672,77 L672,58.8028169 L638.810277,58.8028169 L638.810277,46.8140845 L666.343874,46.8140845 L666.343874,29.9014085 L638.810277,29.9014085 L638.810277,19.1971831 L671.039526,19.1971831 L671.039526,1 L618,1 L618,77 L672,77 Z M714.346445,77 C717.568835,77 720.880736,76.6078704 724.282148,75.8236111 C727.68356,75.0393519 730.870146,73.8986111 733.841906,72.4013889 C736.813666,70.9041667 739.463187,69.050463 741.790469,66.8402778 C744.117751,64.6300926 745.854261,62.1347222 747,59.3541667 L747,59.3541667 L729.921331,49.1944444 C729.276853,50.9055556 728.399647,52.3493056 727.289713,53.5256944 C726.179778,54.7020833 724.926626,55.6645833 723.530257,56.4131944 C722.133888,57.1618056 720.683812,57.6965278 719.18003,58.0173611 C717.676248,58.3381944 716.20827,58.4986111 714.776097,58.4986111 C712.054967,58.4986111 709.60237,57.9460648 707.418306,56.8409722 C705.234241,55.7358796 703.390318,54.2564815 701.886536,52.4027778 C700.382753,50.5490741 699.237015,48.4101852 698.449319,45.9861111 C697.661624,43.562037 697.267776,41.0310185 697.267776,38.3930556 C697.267776,36.0402778 697.607917,33.6696759 698.2882,31.28125 C698.968482,28.8928241 700.006808,26.7539352 701.403177,24.8645833 C702.799546,22.9752315 704.589763,21.4423611 706.773828,20.2659722 C708.957892,19.0895833 711.553707,18.5013889 714.561271,18.5013889 C715.993444,18.5013889 717.479324,18.6439815 719.018911,18.9291667 C720.558497,19.2143519 722.044377,19.7134259 723.476551,20.4263889 C724.908724,21.1393519 726.215582,22.1018519 727.397126,23.3138889 C728.578669,24.5259259 729.527484,26.0587963 730.24357,27.9125 L730.24357,27.9125 L746.248109,16.5763889 C743.598588,11.5856481 739.5706,7.57523148 734.164145,4.54513889 C728.75769,1.5150463 722.366616,0 714.990923,0 C708.832577,0 703.354513,1.10509259 698.556732,3.31527778 C693.758951,5.52546296 689.677257,8.41296296 686.311649,11.9777778 C682.946041,15.5425926 680.386031,19.5708333 678.631619,24.0625 C676.877206,28.5541667 676,33.1171296 676,37.7513889 C676,42.599537 676.930913,47.3763889 678.792738,52.0819444 C680.654564,56.7875 683.286183,60.9939815 686.687595,64.7013889 C690.089007,68.4087963 694.134897,71.3854167 698.825265,73.63125 C703.515633,75.8770833 708.68936,77 714.346445,77 Z M792.046358,77 L792.046358,19.1971831 L814,19.1971831 L814,1 L749,1 L749,19.1971831 L771.061258,19.1971831 L771.061258,77 L792.046358,77 Z M829.353204,77 L833.859911,62.1211268 L854.140089,62.1211268 L858.754098,77 L880,77 L853.603577,1 L834.503726,1 L808,77 L829.353204,77 Z M851,48 L837,48 L844.162791,24 L851,48 Z" id="CONECTA" stroke="#F0F2FD" stroke-width="2" fill-rule="nonzero"></path>
            <g id="orange_outline" opacity="0.2" transform="translate(0.000000, 264.000000)" stroke="#FB9C24">
                <g id="Group-14">
                    <path d="M94.8776183,198 L-2.61479727e-12,149.628661 L0.67768422,48.3713387 L96.1223817,1.00186526e-12 L191,48.3713387 L190.322316,149.628661 L94.8776183,198 L94.8776183,198 Z" id="Combined-Shape" fill="#FFFFFF"></path>
                    <polyline id="Line-8" stroke-linecap="square" points="95 196 95 97.8695652 190 48"></polyline>
                    <line x1="2" y1="48" x2="94.5" y2="97.5" id="Line-9" stroke-linecap="square"></line>
                </g>
            </g>
            <line x1="149.5" y1="384.5" x2="538.5" y2="588.5" id="Line-13" stroke="#F0F2FD" stroke-linecap="square"></line>
            <g id="blue_outline" opacity="0.1" transform="translate(515.000000, 551.000000)" stroke="#3B65E6">
                <path d="M94.8776183,198 L-2.61479727e-12,149.628661 L0.67768422,48.3713387 L96.1223817,1.00186526e-12 L191,48.3713387 L190.322316,149.628661 L94.8776183,198 L94.8776183,198 Z" id="Combined-Shape-Copy-2" fill="#FFFFFF" fill-rule="evenodd"></path>
                <polyline id="Line-8-Copy-2" stroke-linecap="square" points="95 196 95 97.8695652 190 48"></polyline>
                <line x1="2" y1="48" x2="94.5" y2="97.5" id="Line-9-Copy-2" stroke-linecap="square"></line>
            </g>
        </g>
        <rect id="Rectangle" fill="#F0F2FD" transform="translate(965.500000, 1127.500000) rotate(-45.000000) translate(-965.500000, -1127.500000) " x="879" y="1041" width="173" height="173" rx="54"></rect>
        <g id="Gratis-Copy-3" transform="translate(0.000000, 1223.000000)" fill-rule="nonzero" stroke="#F0F2FD" stroke-width="2">
            <g id="Background">
                <path d="M38.3464448,77 C41.5688351,77 44.8807363,76.6078704 48.2821483,75.8236111 C51.6835603,75.0393519 54.8701462,73.8986111 57.8419062,72.4013889 C60.8136662,70.9041667 63.4631871,69.050463 65.790469,66.8402778 C68.1177509,64.6300926 69.8542612,62.1347222 71,59.3541667 L71,59.3541667 L53.9213313,49.1944444 C53.2768533,50.9055556 52.399647,52.3493056 51.2897126,53.5256944 C50.1797781,54.7020833 48.9266263,55.6645833 47.5302572,56.4131944 C46.133888,57.1618056 44.6838124,57.6965278 43.1800303,58.0173611 C41.6762481,58.3381944 40.2082703,58.4986111 38.7760968,58.4986111 C36.0549672,58.4986111 33.6023701,57.9460648 31.4183056,56.8409722 C29.234241,55.7358796 27.3903177,54.2564815 25.8865356,52.4027778 C24.3827534,50.5490741 23.2370146,48.4101852 22.4493192,45.9861111 C21.6616238,43.562037 21.2677761,41.0310185 21.2677761,38.3930556 C21.2677761,36.0402778 21.6079173,33.6696759 22.2881997,31.28125 C22.9684821,28.8928241 24.0068079,26.7539352 25.403177,24.8645833 C26.7995461,22.9752315 28.589763,21.4423611 30.7738275,20.2659722 C32.9578921,19.0895833 35.5537065,18.5013889 38.5612708,18.5013889 C39.9934443,18.5013889 41.4793243,18.6439815 43.0189107,18.9291667 C44.5584972,19.2143519 46.0443772,19.7134259 47.4765507,20.4263889 C48.9087242,21.1393519 50.2155825,22.1018519 51.3971256,23.3138889 C52.5786687,24.5259259 53.5274836,26.0587963 54.2435703,27.9125 L54.2435703,27.9125 L70.2481089,16.5763889 C67.598588,11.5856481 63.5706001,7.57523148 58.1641452,4.54513889 C52.7576904,1.5150463 46.3666162,0 38.9909228,0 C32.8325769,0 27.3545134,1.10509259 22.5567322,3.31527778 C17.7589511,5.52546296 13.6772567,8.41296296 10.311649,11.9777778 C6.94604135,15.5425926 4.38603127,19.5708333 2.63161876,24.0625 C0.877206253,28.5541667 0,33.1171296 0,37.7513889 C0,42.599537 0.930912758,47.3763889 2.79273828,52.0819444 C4.65456379,56.7875 7.28618255,60.9939815 10.6875946,64.7013889 C14.0890066,68.4087963 18.1348966,71.3854167 22.8252648,73.63125 C27.5156329,75.8770833 32.6893596,77 38.3464448,77 Z M112.339806,77 C117.964401,77 123.144013,75.9305556 127.878641,73.7916667 C132.613269,71.6527778 136.68932,68.81875 140.106796,65.2895833 C143.524272,61.7604167 146.194175,57.6965278 148.116505,53.0979167 C150.038835,48.4993056 151,43.7046296 151,38.7138889 C151,33.8657407 150.092233,29.124537 148.276699,24.4902778 C146.461165,19.8560185 143.880259,15.7208333 140.533981,12.0847222 C137.187702,8.44861111 133.165049,5.52546296 128.466019,3.31527778 C123.76699,1.10509259 118.533981,0 112.76699,0 C107.142395,0 101.962783,1.05162037 97.2281553,3.15486111 C92.4935275,5.25810185 88.3996764,8.07430556 84.9466019,11.6034722 C81.4935275,15.1326389 78.8058252,19.2143519 76.8834951,23.8486111 C74.961165,28.4828704 74,33.2953704 74,38.2861111 C74,43.2055556 74.9255663,47.9824074 76.776699,52.6166667 C78.6278317,57.2509259 81.2265372,61.368287 84.5728155,64.96875 C87.9190939,68.569213 91.9417476,71.474537 96.6407767,73.6847222 C101.339806,75.8949074 106.572816,77 112.339806,77 Z M112.553846,59 C109.538462,59 106.935897,58.42959 104.746154,57.2887701 C102.55641,56.1479501 100.74359,54.6506239 99.3076923,52.7967914 C97.8717949,50.942959 96.7948718,48.8217469 96.0769231,46.4331551 C95.3589744,44.0445633 95,41.5668449 95,39 C95,36.5044563 95.3410256,34.0623886 96.0230769,31.6737968 C96.7051282,29.285205 97.7641026,27.1461676 99.2,25.2566845 C100.635897,23.3672014 102.448718,21.8520499 104.638462,20.7112299 C106.828205,19.57041 109.430769,19 112.446154,19 C115.389744,19 117.95641,19.5525847 120.146154,20.657754 C122.335897,21.7629234 124.166667,23.2245989 125.638462,25.0427807 C127.110256,26.8609626 128.205128,28.9643494 128.923077,31.3529412 C129.641026,33.741533 130,36.2192513 130,38.7860963 C130,41.2816399 129.658974,43.741533 128.976923,46.1657754 C128.294872,48.5900178 127.253846,50.7468806 125.853846,52.6363636 C124.453846,54.5258467 122.641026,56.0588235 120.415385,57.2352941 C118.189744,58.4117647 115.569231,59 112.553846,59 Z M179.981013,77 L179.981013,39.6422535 L210.322785,77 L227,77 L227,1 L206.018987,1 L206.018987,39.6422535 L175.35443,1 L159,1 L159,77 L179.981013,77 Z M295,77 L295,58.8028169 L261.810277,58.8028169 L261.810277,46.8140845 L289.343874,46.8140845 L289.343874,29.9014085 L261.810277,29.9014085 L261.810277,19.1971831 L294.039526,19.1971831 L294.039526,1 L241,1 L241,77 L295,77 Z M337.346445,77 C340.568835,77 343.880736,76.6078704 347.282148,75.8236111 C350.68356,75.0393519 353.870146,73.8986111 356.841906,72.4013889 C359.813666,70.9041667 362.463187,69.050463 364.790469,66.8402778 C367.117751,64.6300926 368.854261,62.1347222 370,59.3541667 L370,59.3541667 L352.921331,49.1944444 C352.276853,50.9055556 351.399647,52.3493056 350.289713,53.5256944 C349.179778,54.7020833 347.926626,55.6645833 346.530257,56.4131944 C345.133888,57.1618056 343.683812,57.6965278 342.18003,58.0173611 C340.676248,58.3381944 339.20827,58.4986111 337.776097,58.4986111 C335.054967,58.4986111 332.60237,57.9460648 330.418306,56.8409722 C328.234241,55.7358796 326.390318,54.2564815 324.886536,52.4027778 C323.382753,50.5490741 322.237015,48.4101852 321.449319,45.9861111 C320.661624,43.562037 320.267776,41.0310185 320.267776,38.3930556 C320.267776,36.0402778 320.607917,33.6696759 321.2882,31.28125 C321.968482,28.8928241 323.006808,26.7539352 324.403177,24.8645833 C325.799546,22.9752315 327.589763,21.4423611 329.773828,20.2659722 C331.957892,19.0895833 334.553707,18.5013889 337.561271,18.5013889 C338.993444,18.5013889 340.479324,18.6439815 342.018911,18.9291667 C343.558497,19.2143519 345.044377,19.7134259 346.476551,20.4263889 C347.908724,21.1393519 349.215582,22.1018519 350.397126,23.3138889 C351.578669,24.5259259 352.527484,26.0587963 353.24357,27.9125 L353.24357,27.9125 L369.248109,16.5763889 C366.598588,11.5856481 362.5706,7.57523148 357.164145,4.54513889 C351.75769,1.5150463 345.366616,0 337.990923,0 C331.832577,0 326.354513,1.10509259 321.556732,3.31527778 C316.758951,5.52546296 312.677257,8.41296296 309.311649,11.9777778 C305.946041,15.5425926 303.386031,19.5708333 301.631619,24.0625 C299.877206,28.5541667 299,33.1171296 299,37.7513889 C299,42.599537 299.930913,47.3763889 301.792738,52.0819444 C303.654564,56.7875 306.286183,60.9939815 309.687595,64.7013889 C313.089007,68.4087963 317.134897,71.3854167 321.825265,73.63125 C326.515633,75.8770833 331.68936,77 337.346445,77 Z M415.046358,77 L415.046358,19.1971831 L437,19.1971831 L437,1 L372,1 L372,19.1971831 L394.061258,19.1971831 L394.061258,77 L415.046358,77 Z M452.353204,77 L456.859911,62.1211268 L477.140089,62.1211268 L481.754098,77 L503,77 L476.603577,1 L457.503726,1 L431,77 L452.353204,77 Z M474,48 L460,48 L467.162791,24 L474,48 Z" id="CONECTA"></path>
            </g>
        </g>
        <g id="orange_outline" opacity="0.2" transform="translate(159.000000, 1333.000000)" stroke="#FB9C24">
            <g id="Group-14">
                <path d="M94.8776183,198 L-2.61479727e-12,149.628661 L0.67768422,48.3713387 L96.1223817,1.00186526e-12 L191,48.3713387 L190.322316,149.628661 L94.8776183,198 L94.8776183,198 Z" id="Combined-Shape" fill="#FFFFFF"></path>
                <polyline id="Line-8" stroke-linecap="square" points="95 196 95 97.8695652 190 48"></polyline>
                <line x1="2" y1="48" x2="94.5" y2="97.5" id="Line-9" stroke-linecap="square"></line>
            </g>
        </g>
        <line x1="308.5" y1="1453.5" x2="697.5" y2="1657.5" id="Line-13" stroke="#F0F2FD" stroke-linecap="square"></line>
        <g id="blue_outline" opacity="0.1" transform="translate(674.000000, 1620.000000)" stroke="#3B65E6">
            <path d="M94.8776183,198 L-2.61479727e-12,149.628661 L0.67768422,48.3713387 L96.1223817,1.00186526e-12 L191,48.3713387 L190.322316,149.628661 L94.8776183,198 L94.8776183,198 Z" id="Combined-Shape-Copy-2" fill="#FFFFFF" fill-rule="evenodd"></path>
            <polyline id="Line-8-Copy-2" stroke-linecap="square" points="95 196 95 97.8695652 190 48"></polyline>
            <line x1="2" y1="48" x2="94.5" y2="97.5" id="Line-9-Copy-2" stroke-linecap="square"></line>
        </g>
        <g id="blue_square" transform="translate(37.000000, 273.000000)">
            <g id="Group-20-Copy-3" transform="translate(-3.538462, 0.304762)">
                <path d="M4.06218333,11.7166792 L4.11571729,3.78771989 L11.6554124,1.71418435e-13 L19.1503108,3.78771989 L19.0967769,11.7166792 L11.5570818,15.5043991 L4.06218333,11.7166792 Z" id="Combined-Shape" fill="#3B65E6"></path>
                <polygon id="Rectangle" fill="#4D75F1" transform="translate(7.829549, 9.652910) rotate(-45.000000) translate(-7.829549, -9.652910) " points="9.35078927 2.87951908 3.70631416 8.44828574 6.32768524 16.4263017 11.9527831 10.9402643"></polygon>
                <polygon id="Rectangle" fill="#325DE1" transform="translate(15.382946, 9.675309) rotate(-45.000000) translate(-15.382946, -9.675309) " points="8.55586197 11.0918038 16.5655539 13.744851 22.210029 8.17608429 14.1809599 5.60576645"></polygon>
            </g>
        </g>
        <g id="yellow_square" transform="translate(37.000000, 1341.000000)">
            <g id="Group-20" transform="translate(-3.538462, 0.304762)">
                <path d="M4.06218333,11.7166792 L4.11571729,3.78771989 L11.6554124,1.72750703e-13 L19.1503108,3.78771989 L19.0967769,11.7166792 L11.5570818,15.5043991 L4.06218333,11.7166792 Z" id="Combined-Shape" fill="#FFD24F"></path>
                <polygon id="Rectangle" fill="#FBD874" transform="translate(7.829549, 9.652910) rotate(-45.000000) translate(-7.829549, -9.652910) " points="9.35078927 2.87951908 3.70631416 8.44828574 6.32768524 16.4263017 11.9527831 10.9402643"></polygon>
                <polygon id="Rectangle" fill="#F6C73E" transform="translate(15.382946, 9.675309) rotate(-45.000000) translate(-15.382946, -9.675309) " points="8.55586197 11.0918038 16.5655539 13.744851 22.210029 8.17608429 14.1809599 5.60576645"></polygon>
            </g>
        </g>
    </g>
</svg>