<?xml version="1.0" encoding="UTF-8"?>
<svg width="1024px" height="1539px" viewBox="0 0 1024 1539" version="1.1" xmlns="http://www.w3.org/2000/svg" xmlns:xlink="http://www.w3.org/1999/xlink">
    <!-- Generator: Sketch 64 (93537) - https://sketch.com -->
    <title>Desktop Copy 6</title>
    <desc>Created with Sketch.</desc>
    <g id="Desktop-Copy-6" stroke="none" stroke-width="1" fill="none" fill-rule="evenodd">
        <rect fill="#FFFFFF" x="0" y="0" width="1024" height="1539"></rect>
        <g id="green_square" transform="translate(938.000000, 77.000000)">
            <g id="Group-20-Copy" transform="translate(-4.865385, 0.419048)">
                <path d="M5.58550209,16.1104339 L5.65911128,5.20811485 L16.026192,2.29150032e-13 L26.3316774,5.20811485 L26.2580682,16.1104339 L15.8909874,21.3185487 L5.58550209,16.1104339 Z" id="Combined-Shape" fill="#1CD6BF"></path>
                <polygon id="Rectangle" fill="#1DE0C8" transform="translate(10.765629, 13.272752) rotate(-45.000000) translate(-10.765629, -13.272752) " points="12.8573352 3.95933873 5.09618197 11.6163929 8.70056721 22.5861648 16.4350768 15.0428634"></polygon>
                <polygon id="Rectangle" fill="#0BCDB5" transform="translate(21.151550, 13.303549) rotate(-45.000000) translate(-21.151550, -13.303549) " points="11.7643102 15.2512303 22.7776366 18.8991701 30.5387899 11.2421159 19.4988198 7.70792887"></polygon>
            </g>
        </g>
        <g id="yellow_square" transform="translate(960.000000, 947.000000)">
            <g id="Group-20" transform="translate(-4.865385, 0.419048)">
                <path d="M5.58550209,16.1104339 L5.65911128,5.20811485 L16.026192,2.34479103e-13 L26.3316774,5.20811485 L26.2580682,16.1104339 L15.8909874,21.3185487 L5.58550209,16.1104339 Z" id="Combined-Shape" fill="#FFD24F"></path>
                <polygon id="Rectangle" fill="#FBD874" transform="translate(10.765629, 13.272752) rotate(-45.000000) translate(-10.765629, -13.272752) " points="12.8573352 3.95933873 5.09618197 11.6163929 8.70056721 22.5861648 16.4350768 15.0428634"></polygon>
                <polygon id="Rectangle" fill="#F6C73E" transform="translate(21.151550, 13.303549) rotate(-45.000000) translate(-21.151550, -13.303549) " points="11.7643102 15.2512303 22.7776366 18.8991701 30.5387899 11.2421159 19.4988198 7.70792887"></polygon>
            </g>
        </g>
        <g id="blue_square" transform="translate(117.000000, 637.000000)">
            <g id="Group-20-Copy-3" transform="translate(-3.538462, 0.304762)">
                <path d="M4.06218333,11.7166792 L4.11571729,3.78771989 L11.6554124,1.71418435e-13 L19.1503108,3.78771989 L19.0967769,11.7166792 L11.5570818,15.5043991 L4.06218333,11.7166792 Z" id="Combined-Shape" fill="#3B65E6"></path>
                <polygon id="Rectangle" fill="#4D75F1" transform="translate(7.829549, 9.652910) rotate(-45.000000) translate(-7.829549, -9.652910) " points="9.35078927 2.87951908 3.70631416 8.44828574 6.32768524 16.4263017 11.9527831 10.9402643"></polygon>
                <polygon id="Rectangle" fill="#325DE1" transform="translate(15.382946, 9.675309) rotate(-45.000000) translate(-15.382946, -9.675309) " points="8.55586197 11.0918038 16.5655539 13.744851 22.210029 8.17608429 14.1809599 5.60576645"></polygon>
            </g>
        </g>
        <g id="red_square" transform="translate(857.000000, 428.000000)">
            <g id="Group-20-Copy-5" transform="translate(-3.538462, 0.304762)">
                <path d="M4.06218333,11.7166792 L4.11571729,3.78771989 L11.6554124,1.69642078e-13 L19.1503108,3.78771989 L19.0967769,11.7166792 L11.5570818,15.5043991 L4.06218333,11.7166792 Z" id="Combined-Shape" fill="#FF7B7A"></path>
                <polygon id="Rectangle" fill="#FB8887" transform="translate(7.829549, 9.652910) rotate(-45.000000) translate(-7.829549, -9.652910) " points="9.35078927 2.87951908 3.70631416 8.44828574 6.32768524 16.4263017 11.9527831 10.9402643"></polygon>
                <polygon id="Rectangle" fill="#F06766" transform="translate(15.382946, 9.675309) rotate(-45.000000) translate(-15.382946, -9.675309) " points="8.55586197 11.0918038 16.5655539 13.744851 22.210029 8.17608429 14.1809599 5.60576645"></polygon>
            </g>
        </g>
        <g id="orange_square" transform="translate(50.000000, 1226.000000)">
            <g id="Group-20-Copy-2" transform="translate(-3.538462, 0.304762)">
                <path d="M4.06218333,11.7166792 L4.11571729,3.78771989 L11.6554124,1.69642078e-13 L19.1503108,3.78771989 L19.0967769,11.7166792 L11.5570818,15.5043991 L4.06218333,11.7166792 Z" id="Combined-Shape" fill="#FFA737"></path>
                <polygon id="Rectangle" fill="#FCAF4C" transform="translate(7.829549, 9.652910) rotate(-45.000000) translate(-7.829549, -9.652910) " points="9.35078927 2.87951908 3.70631416 8.44828574 6.32768524 16.4263017 11.9527831 10.9402643"></polygon>
                <polygon id="Rectangle" fill="#FB9C24" transform="translate(15.382946, 9.675309) rotate(-45.000000) translate(-15.382946, -9.675309) " points="8.55586197 11.0918038 16.5655539 13.744851 22.210029 8.17608429 14.1809599 5.60576645"></polygon>
            </g>
        </g>
        <g id="yellow_square" transform="translate(50.000000, 216.000000)">
            <g id="Group-20" transform="translate(-3.538462, 0.304762)">
                <path d="M4.06218333,11.7166792 L4.11571729,3.78771989 L11.6554124,1.72750703e-13 L19.1503108,3.78771989 L19.0967769,11.7166792 L11.5570818,15.5043991 L4.06218333,11.7166792 Z" id="Combined-Shape" fill="#FFD24F"></path>
                <polygon id="Rectangle" fill="#FBD874" transform="translate(7.829549, 9.652910) rotate(-45.000000) translate(-7.829549, -9.652910) " points="9.35078927 2.87951908 3.70631416 8.44828574 6.32768524 16.4263017 11.9527831 10.9402643"></polygon>
                <polygon id="Rectangle" fill="#F6C73E" transform="translate(15.382946, 9.675309) rotate(-45.000000) translate(-15.382946, -9.675309) " points="8.55586197 11.0918038 16.5655539 13.744851 22.210029 8.17608429 14.1809599 5.60576645"></polygon>
            </g>
        </g>
        <path d="M550.346445,224 C553.568835,224 556.880736,223.60787 560.282148,222.823611 C563.68356,222.039352 566.870146,220.898611 569.841906,219.401389 C572.813666,217.904167 575.463187,216.050463 577.790469,213.840278 C580.117751,211.630093 581.854261,209.134722 583,206.354167 L583,206.354167 L565.921331,196.194444 C565.276853,197.905556 564.399647,199.349306 563.289713,200.525694 C562.179778,201.702083 560.926626,202.664583 559.530257,203.413194 C558.133888,204.161806 556.683812,204.696528 555.18003,205.017361 C553.676248,205.338194 552.20827,205.498611 550.776097,205.498611 C548.054967,205.498611 545.60237,204.946065 543.418306,203.840972 C541.234241,202.73588 539.390318,201.256481 537.886536,199.402778 C536.382753,197.549074 535.237015,195.410185 534.449319,192.986111 C533.661624,190.562037 533.267776,188.031019 533.267776,185.393056 C533.267776,183.040278 533.607917,180.669676 534.2882,178.28125 C534.968482,175.892824 536.006808,173.753935 537.403177,171.864583 C538.799546,169.975231 540.589763,168.442361 542.773828,167.265972 C544.957892,166.089583 547.553707,165.501389 550.561271,165.501389 C551.993444,165.501389 553.479324,165.643981 555.018911,165.929167 C556.558497,166.214352 558.044377,166.713426 559.476551,167.426389 C560.908724,168.139352 562.215582,169.101852 563.397126,170.313889 C564.578669,171.525926 565.527484,173.058796 566.24357,174.9125 L566.24357,174.9125 L582.248109,163.576389 C579.598588,158.585648 575.5706,154.575231 570.164145,151.545139 C564.75769,148.515046 558.366616,147 550.990923,147 C544.832577,147 539.354513,148.105093 534.556732,150.315278 C529.758951,152.525463 525.677257,155.412963 522.311649,158.977778 C518.946041,162.542593 516.386031,166.570833 514.631619,171.0625 C512.877206,175.554167 512,180.11713 512,184.751389 C512,189.599537 512.930913,194.376389 514.792738,199.081944 C516.654564,203.7875 519.286183,207.993981 522.687595,211.701389 C526.089007,215.408796 530.134897,218.385417 534.825265,220.63125 C539.515633,222.877083 544.68936,224 550.346445,224 Z M624.339806,224 C629.964401,224 635.144013,222.930556 639.878641,220.791667 C644.613269,218.652778 648.68932,215.81875 652.106796,212.289583 C655.524272,208.760417 658.194175,204.696528 660.116505,200.097917 C662.038835,195.499306 663,190.70463 663,185.713889 C663,180.865741 662.092233,176.124537 660.276699,171.490278 C658.461165,166.856019 655.880259,162.720833 652.533981,159.084722 C649.187702,155.448611 645.165049,152.525463 640.466019,150.315278 C635.76699,148.105093 630.533981,147 624.76699,147 C619.142395,147 613.962783,148.05162 609.228155,150.154861 C604.493528,152.258102 600.399676,155.074306 596.946602,158.603472 C593.493528,162.132639 590.805825,166.214352 588.883495,170.848611 C586.961165,175.48287 586,180.29537 586,185.286111 C586,190.205556 586.925566,194.982407 588.776699,199.616667 C590.627832,204.250926 593.226537,208.368287 596.572816,211.96875 C599.919094,215.569213 603.941748,218.474537 608.640777,220.684722 C613.339806,222.894907 618.572816,224 624.339806,224 Z M624.553846,206 C621.538462,206 618.935897,205.42959 616.746154,204.28877 C614.55641,203.14795 612.74359,201.650624 611.307692,199.796791 C609.871795,197.942959 608.794872,195.821747 608.076923,193.433155 C607.358974,191.044563 607,188.566845 607,186 C607,183.504456 607.341026,181.062389 608.023077,178.673797 C608.705128,176.285205 609.764103,174.146168 611.2,172.256684 C612.635897,170.367201 614.448718,168.85205 616.638462,167.71123 C618.828205,166.57041 621.430769,166 624.446154,166 C627.389744,166 629.95641,166.552585 632.146154,167.657754 C634.335897,168.762923 636.166667,170.224599 637.638462,172.042781 C639.110256,173.860963 640.205128,175.964349 640.923077,178.352941 C641.641026,180.741533 642,183.219251 642,185.786096 C642,188.28164 641.658974,190.741533 640.976923,193.165775 C640.294872,195.590018 639.253846,197.746881 637.853846,199.636364 C636.453846,201.525847 634.641026,203.058824 632.415385,204.235294 C630.189744,205.411765 627.569231,206 624.553846,206 Z M691.981013,224 L691.981013,186.642254 L722.322785,224 L739,224 L739,148 L718.018987,148 L718.018987,186.642254 L687.35443,148 L671,148 L671,224 L691.981013,224 Z M807,224 L807,205.802817 L773.810277,205.802817 L773.810277,193.814085 L801.343874,193.814085 L801.343874,176.901408 L773.810277,176.901408 L773.810277,166.197183 L806.039526,166.197183 L806.039526,148 L753,148 L753,224 L807,224 Z M849.346445,224 C852.568835,224 855.880736,223.60787 859.282148,222.823611 C862.68356,222.039352 865.870146,220.898611 868.841906,219.401389 C871.813666,217.904167 874.463187,216.050463 876.790469,213.840278 C879.117751,211.630093 880.854261,209.134722 882,206.354167 L882,206.354167 L864.921331,196.194444 C864.276853,197.905556 863.399647,199.349306 862.289713,200.525694 C861.179778,201.702083 859.926626,202.664583 858.530257,203.413194 C857.133888,204.161806 855.683812,204.696528 854.18003,205.017361 C852.676248,205.338194 851.20827,205.498611 849.776097,205.498611 C847.054967,205.498611 844.60237,204.946065 842.418306,203.840972 C840.234241,202.73588 838.390318,201.256481 836.886536,199.402778 C835.382753,197.549074 834.237015,195.410185 833.449319,192.986111 C832.661624,190.562037 832.267776,188.031019 832.267776,185.393056 C832.267776,183.040278 832.607917,180.669676 833.2882,178.28125 C833.968482,175.892824 835.006808,173.753935 836.403177,171.864583 C837.799546,169.975231 839.589763,168.442361 841.773828,167.265972 C843.957892,166.089583 846.553707,165.501389 849.561271,165.501389 C850.993444,165.501389 852.479324,165.643981 854.018911,165.929167 C855.558497,166.214352 857.044377,166.713426 858.476551,167.426389 C859.908724,168.139352 861.215582,169.101852 862.397126,170.313889 C863.578669,171.525926 864.527484,173.058796 865.24357,174.9125 L865.24357,174.9125 L881.248109,163.576389 C878.598588,158.585648 874.5706,154.575231 869.164145,151.545139 C863.75769,148.515046 857.366616,147 849.990923,147 C843.832577,147 838.354513,148.105093 833.556732,150.315278 C828.758951,152.525463 824.677257,155.412963 821.311649,158.977778 C817.946041,162.542593 815.386031,166.570833 813.631619,171.0625 C811.877206,175.554167 811,180.11713 811,184.751389 C811,189.599537 811.930913,194.376389 813.792738,199.081944 C815.654564,203.7875 818.286183,207.993981 821.687595,211.701389 C825.089007,215.408796 829.134897,218.385417 833.825265,220.63125 C838.515633,222.877083 843.68936,224 849.346445,224 Z M927.046358,224 L927.046358,166.197183 L949,166.197183 L949,148 L884,148 L884,166.197183 L906.061258,166.197183 L906.061258,224 L927.046358,224 Z M964.353204,224 L968.859911,209.121127 L989.140089,209.121127 L993.754098,224 L1015,224 L988.603577,148 L969.503726,148 L943,224 L964.353204,224 Z M986,195 L972,195 L979.162791,171 L986,195 Z" id="CONECTA" stroke="#F0F2FD" fill-rule="nonzero"></path>
        <g id="orange_outline" opacity="0.2" transform="translate(33.000000, 287.000000)" stroke="#FB9C24">
            <g id="Group-14">
                <path d="M-2.22120867e-12,86.1498353 L0.390289341,27.8501647 L55.3584397,5.63158947e-13 L110,27.8501647 L109.609711,86.1498353 L54.6415603,114 L-2.22120867e-12,86.1498353 Z" id="Combined-Shape" fill="#FFFFFF"></path>
                <polyline id="Line-8" stroke-linecap="square" points="54.7120419 112.848485 54.7120419 56.3491436 109.424084 27.6363636"></polyline>
                <line x1="1.15183246" y1="27.6363636" x2="54.4240838" y2="56.1363636" id="Line-9" stroke-linecap="square"></line>
            </g>
        </g>
        <g id="orange_outline" opacity="0.2" transform="translate(576.000000, 1186.000000)" stroke="#FB9C24">
            <g id="Group-14">
                <path d="M-2.22120867e-12,86.1498353 L0.390289341,27.8501647 L55.3584397,5.63158947e-13 L110,27.8501647 L109.609711,86.1498353 L54.6415603,114 L-2.22120867e-12,86.1498353 Z" id="Combined-Shape" fill="#FFFFFF"></path>
                <polyline id="Line-8" stroke-linecap="square" points="54.7120419 112.848485 54.7120419 56.3491436 109.424084 27.6363636"></polyline>
                <line x1="1.15183246" y1="27.6363636" x2="54.4240838" y2="56.1363636" id="Line-9" stroke-linecap="square"></line>
            </g>
        </g>
        <line x1="119.287179" y1="356.287805" x2="342.712821" y2="473.712195" id="Line-13" stroke="#F0F2FD" stroke-linecap="square"></line>
        <line x1="662.287179" y1="1255.2878" x2="885.712821" y2="1372.7122" id="Line-13-Copy" stroke="#F0F2FD" stroke-linecap="square"></line>
        <g id="blue_outline" opacity="0.1" transform="translate(329.000000, 452.000000)" stroke="#3B65E6">
            <path d="M-2.22120867e-12,86.1498353 L0.390289341,27.8501647 L55.3584397,5.63158947e-13 L110,27.8501647 L109.609711,86.1498353 L54.6415603,114 L-2.22120867e-12,86.1498353 Z" id="Combined-Shape-Copy-2" fill="#FFFFFF" fill-rule="evenodd"></path>
            <polyline id="Line-8-Copy-2" stroke-linecap="square" points="54.7120419 112.848485 54.7120419 56.3491436 109.424084 27.6363636"></polyline>
            <line x1="1.15183246" y1="27.6363636" x2="54.4240838" y2="56.1363636" id="Line-9-Copy-2" stroke-linecap="square"></line>
        </g>
        <g id="blue_outline" opacity="0.1" transform="translate(872.000000, 1351.000000)" stroke="#3B65E6">
            <path d="M-2.22120867e-12,86.1498353 L0.390289341,27.8501647 L55.3584397,5.63158947e-13 L110,27.8501647 L109.609711,86.1498353 L54.6415603,114 L-2.22120867e-12,86.1498353 Z" id="Combined-Shape-Copy-2" fill="#FFFFFF" fill-rule="evenodd"></path>
            <polyline id="Line-8-Copy-2" stroke-linecap="square" points="54.7120419 112.848485 54.7120419 56.3491436 109.424084 27.6363636"></polyline>
            <line x1="1.15183246" y1="27.6363636" x2="54.4240838" y2="56.1363636" id="Line-9-Copy-2" stroke-linecap="square"></line>
        </g>
    </g>
</svg>