<?xml version="1.0" encoding="UTF-8"?>
<svg width="1024px" height="1831px" viewBox="0 0 1024 1831" version="1.1" xmlns="http://www.w3.org/2000/svg" xmlns:xlink="http://www.w3.org/1999/xlink">
    <title>bg_feed</title>
    <defs>
        <path d="M94.8776183,198 L-2.62190269e-12,149.628661 L0.67768422,48.3713387 L96.1223817,1.00897068e-12 L191,48.3713387 L190.322316,149.628661 L94.8776183,198 L94.8776183,198 Z" id="path-1"></path>
        <path d="M94.8776183,198 L-2.62190269e-12,149.628661 L0.67768422,48.3713387 L96.1223817,1.00897068e-12 L191,48.3713387 L190.322316,149.628661 L94.8776183,198 L94.8776183,198 Z" id="path-2"></path>
        <path d="M94.8776183,198 L-2.62190269e-12,149.628661 L0.67768422,48.3713387 L96.1223817,1.00897068e-12 L191,48.3713387 L190.322316,149.628661 L94.8776183,198 L94.8776183,198 Z" id="path-3"></path>
        <path d="M94.8776183,198 L-2.62190269e-12,149.628661 L0.67768422,48.3713387 L96.1223817,1.00897068e-12 L191,48.3713387 L190.322316,149.628661 L94.8776183,198 L94.8776183,198 Z" id="path-4"></path>
    </defs>
    <g id="bg_feed" stroke="none" stroke-width="1" fill="none" fill-rule="evenodd">
        <g id="Group-11" transform="translate(77.000000, 1431.000000)"></g>
        <g id="Background" transform="translate(240.000000, 239.000000)">
            <path d="M59.9500756,120 C64.9878971,120 70.1656581,119.388889 75.4833585,118.166667 C80.801059,116.944444 85.7829047,115.166667 90.4288956,112.833333 C95.0748865,110.5 99.2170953,107.611111 102.855522,104.166667 C106.493949,100.722222 109.208775,96.8333333 111,92.5 L111,92.5 L84.2995461,76.6666667 C83.2919818,79.3333333 81.9205749,81.5833333 80.1853253,83.4166667 C78.4500756,85.25 76.4909228,86.75 74.3078669,87.9166667 C72.1248109,89.0833333 69.8577912,89.9166667 67.5068079,90.4166667 C65.1558245,90.9166667 62.8608169,91.1666667 60.6217852,91.1666667 C56.3676248,91.1666667 52.5332829,90.3055556 49.1187595,88.5833333 C45.704236,86.8611111 42.8214826,84.5555556 40.4704992,81.6666667 C38.1195159,78.7777778 36.3282905,75.4444444 35.096823,71.6666667 C33.8653555,67.8888889 33.2496218,63.9444444 33.2496218,59.8333333 C33.2496218,56.1666667 33.7813918,52.4722222 34.8449319,48.75 C35.908472,45.0277778 37.53177,41.6944444 39.714826,38.75 C41.897882,35.8055556 44.6966717,33.4166667 48.1111952,31.5833333 C51.5257186,29.75 55.5839637,28.8333333 60.2859304,28.8333333 C62.5249622,28.8333333 64.8479576,29.0555556 67.2549168,29.5 C69.6618759,29.9444444 71.9848714,30.7222222 74.2239032,31.8333333 C76.4629349,32.9444444 78.5060514,34.4444444 80.3532526,36.3333333 C82.2004539,38.2222222 83.6838124,40.6111111 84.8033283,43.5 L84.8033283,43.5 L109.824508,25.8333333 C105.6823,18.0555556 99.3850227,11.8055556 90.9326778,7.08333333 C82.4803328,2.36111111 72.4886536,0 60.9576399,0 C51.3298033,0 42.7655068,1.72222222 35.2647504,5.16666667 C27.7639939,8.61111111 21.3827534,13.1111111 16.1210287,18.6666667 C10.8593041,24.2222222 6.8570348,30.5 4.11422088,37.5 C1.37140696,44.5 0,51.6111111 0,58.8333333 C0,66.3888889 1.45537065,73.8333333 4.36611195,81.1666667 C7.27685325,88.5 11.3910741,95.0555556 16.7087746,100.833333 C22.026475,106.611111 28.3517398,111.25 35.6845688,114.75 C43.0173979,118.25 51.1059002,120 59.9500756,120 Z M174.750347,120 C183.51595,120 191.588072,118.333333 198.966713,115 C206.345354,111.666667 212.697642,107.25 218.023578,101.75 C223.349515,96.25 227.510402,89.9166667 230.506241,82.75 C233.50208,75.5833333 235,68.1111111 235,60.3333333 C235,52.7777778 233.585298,45.3888889 230.755895,38.1666667 C227.926491,30.9444444 223.9043,24.5 218.68932,18.8333333 C213.474341,13.1666667 207.20527,8.61111111 199.882108,5.16666667 C192.558946,1.72222222 184.403606,0 175.416089,0 C166.650485,0 158.578363,1.63888889 151.199723,4.91666667 C143.821082,8.19444444 137.441054,12.5833333 132.059639,18.0833333 C126.678225,23.5833333 122.489598,29.9444444 119.493759,37.1666667 C116.49792,44.3888889 115,51.8888889 115,59.6666667 C115,67.3333333 116.442441,74.7777778 119.327323,82 C122.212205,89.2222222 126.262136,95.6388889 131.477115,101.25 C136.692094,106.861111 142.961165,111.388889 150.284327,114.833333 C157.60749,118.277778 165.762829,120 174.750347,120 Z M175.584615,92 C170.846154,92 166.75641,91.1158645 163.315385,89.3475936 C159.874359,87.5793226 157.025641,85.258467 154.769231,82.3850267 C152.512821,79.5115865 150.820513,76.2237077 149.692308,72.5213904 C148.564103,68.8190731 148,64.9786096 148,61 C148,57.1319073 148.535897,53.3467023 149.607692,49.644385 C150.679487,45.9420677 152.34359,42.6265597 154.6,39.697861 C156.85641,36.7691622 159.705128,34.4206774 163.146154,32.6524064 C166.587179,30.8841355 170.676923,30 175.415385,30 C180.041026,30 184.074359,30.8565062 187.515385,32.5695187 C190.95641,34.2825312 193.833333,36.5481283 196.146154,39.3663102 C198.458974,42.184492 200.179487,45.4447415 201.307692,49.1470588 C202.435897,52.8493761 203,56.6898396 203,60.6684492 C203,64.5365419 202.464103,68.3493761 201.392308,72.1069519 C200.320513,75.8645276 198.684615,79.2076649 196.484615,82.1363636 C194.284615,85.0650624 191.435897,87.4411765 187.938462,89.2647059 C184.441026,91.0882353 180.323077,92 175.584615,92 Z M280.705696,120 L280.705696,61.9971831 L328.003165,120 L354,120 L354,2 L321.294304,2 L321.294304,61.9971831 L273.493671,2 L248,2 L248,120 L280.705696,120 Z M460,120 L460,91.7464789 L408.371542,91.7464789 L408.371542,73.1323944 L451.201581,73.1323944 L451.201581,46.8732394 L408.371542,46.8732394 L408.371542,30.2535211 L458.505929,30.2535211 L458.505929,2 L376,2 L376,120 L460,120 Z M525.950076,120 C530.987897,120 536.165658,119.388889 541.483359,118.166667 C546.801059,116.944444 551.782905,115.166667 556.428896,112.833333 C561.074887,110.5 565.217095,107.611111 568.855522,104.166667 C572.493949,100.722222 575.208775,96.8333333 577,92.5 L577,92.5 L550.299546,76.6666667 C549.291982,79.3333333 547.920575,81.5833333 546.185325,83.4166667 C544.450076,85.25 542.490923,86.75 540.307867,87.9166667 C538.124811,89.0833333 535.857791,89.9166667 533.506808,90.4166667 C531.155825,90.9166667 528.860817,91.1666667 526.621785,91.1666667 C522.367625,91.1666667 518.533283,90.3055556 515.118759,88.5833333 C511.704236,86.8611111 508.821483,84.5555556 506.470499,81.6666667 C504.119516,78.7777778 502.32829,75.4444444 501.096823,71.6666667 C499.865356,67.8888889 499.249622,63.9444444 499.249622,59.8333333 C499.249622,56.1666667 499.781392,52.4722222 500.844932,48.75 C501.908472,45.0277778 503.53177,41.6944444 505.714826,38.75 C507.897882,35.8055556 510.696672,33.4166667 514.111195,31.5833333 C517.525719,29.75 521.583964,28.8333333 526.28593,28.8333333 C528.524962,28.8333333 530.847958,29.0555556 533.254917,29.5 C535.661876,29.9444444 537.984871,30.7222222 540.223903,31.8333333 C542.462935,32.9444444 544.506051,34.4444444 546.353253,36.3333333 C548.200454,38.2222222 549.683812,40.6111111 550.803328,43.5 L550.803328,43.5 L575.824508,25.8333333 C571.6823,18.0555556 565.385023,11.8055556 556.932678,7.08333333 C548.480333,2.36111111 538.488654,0 526.95764,0 C517.329803,0 508.765507,1.72222222 501.26475,5.16666667 C493.763994,8.61111111 487.382753,13.1111111 482.121029,18.6666667 C476.859304,24.2222222 472.857035,30.5 470.114221,37.5 C467.371407,44.5 466,51.6111111 466,58.8333333 C466,66.3888889 467.455371,73.8333333 470.366112,81.1666667 C473.276853,88.5 477.391074,95.0555556 482.708775,100.833333 C488.026475,106.611111 494.35174,111.25 501.684569,114.75 C509.017398,118.25 517.1059,120 525.950076,120 Z M646.887417,120 L646.887417,30.2535211 L681,30.2535211 L681,2 L580,2 L580,30.2535211 L614.279801,30.2535211 L614.279801,120 L646.887417,120 Z M705.216095,120 L712.226528,96.8985915 L743.773472,96.8985915 L750.95082,120 L784,120 L742.938897,2 L713.228018,2 L672,120 L705.216095,120 Z M739,75 L717,75 L728.255814,38 L739,75 Z" id="CONECTA" stroke="#FFFFFF" fill-rule="nonzero"></path>
            <g id="orange_outline" opacity="0.3" transform="translate(187.000000, 150.000000)">
                <g id="Group-14">
                    <g id="Combined-Shape">
                        <use fill="#FFFFFF" fill-rule="evenodd" style="mix-blend-mode: multiply;" xlink:href="#path-1"></use>
                        <use stroke="#FB9C24" stroke-width="1" xlink:href="#path-1"></use>
                    </g>
                    <polyline id="Line-8" stroke="#FB9C24" stroke-linecap="square" points="95 196 95 97.8695652 190 48"></polyline>
                    <line x1="2" y1="48" x2="94.5" y2="97.5" id="Line-9" stroke="#FB9C24" stroke-linecap="square"></line>
                </g>
            </g>
            <line x1="336.5" y1="270.5" x2="725.5" y2="474.5" id="Line-13" stroke="#C3C5D2" opacity="0.7" stroke-linecap="square"></line>
            <g id="blue_outline" opacity="0.3" transform="translate(702.000000, 437.000000)">
                <g id="Combined-Shape-Copy-2">
                    <use fill="#FFFFFF" fill-rule="evenodd" style="mix-blend-mode: multiply;" xlink:href="#path-2"></use>
                    <use stroke="#3B65E6" stroke-width="1" xlink:href="#path-2"></use>
                </g>
                <polyline id="Line-8-Copy-2" stroke="#3B65E6" stroke-width="1" stroke-linecap="square" points="95 196 95 97.8695652 190 48"></polyline>
                <line x1="2" y1="48" x2="94.5" y2="97.5" id="Line-9-Copy-2" stroke="#3B65E6" stroke-width="1" stroke-linecap="square"></line>
            </g>
        </g>
        <g id="Gratis-Copy-3" transform="translate(0.000000, 1223.000000)" fill-rule="nonzero" stroke="#FFFFFF">
            <g id="Background">
                <path d="M38.3464448,77 C41.5688351,77 44.8807363,76.6078704 48.2821483,75.8236111 C51.6835603,75.0393519 54.8701462,73.8986111 57.8419062,72.4013889 C60.8136662,70.9041667 63.4631871,69.050463 65.790469,66.8402778 C68.1177509,64.6300926 69.8542612,62.1347222 71,59.3541667 L71,59.3541667 L53.9213313,49.1944444 C53.2768533,50.9055556 52.399647,52.3493056 51.2897126,53.5256944 C50.1797781,54.7020833 48.9266263,55.6645833 47.5302572,56.4131944 C46.133888,57.1618056 44.6838124,57.6965278 43.1800303,58.0173611 C41.6762481,58.3381944 40.2082703,58.4986111 38.7760968,58.4986111 C36.0549672,58.4986111 33.6023701,57.9460648 31.4183056,56.8409722 C29.234241,55.7358796 27.3903177,54.2564815 25.8865356,52.4027778 C24.3827534,50.5490741 23.2370146,48.4101852 22.4493192,45.9861111 C21.6616238,43.562037 21.2677761,41.0310185 21.2677761,38.3930556 C21.2677761,36.0402778 21.6079173,33.6696759 22.2881997,31.28125 C22.9684821,28.8928241 24.0068079,26.7539352 25.403177,24.8645833 C26.7995461,22.9752315 28.589763,21.4423611 30.7738275,20.2659722 C32.9578921,19.0895833 35.5537065,18.5013889 38.5612708,18.5013889 C39.9934443,18.5013889 41.4793243,18.6439815 43.0189107,18.9291667 C44.5584972,19.2143519 46.0443772,19.7134259 47.4765507,20.4263889 C48.9087242,21.1393519 50.2155825,22.1018519 51.3971256,23.3138889 C52.5786687,24.5259259 53.5274836,26.0587963 54.2435703,27.9125 L54.2435703,27.9125 L70.2481089,16.5763889 C67.598588,11.5856481 63.5706001,7.57523148 58.1641452,4.54513889 C52.7576904,1.5150463 46.3666162,0 38.9909228,0 C32.8325769,0 27.3545134,1.10509259 22.5567322,3.31527778 C17.7589511,5.52546296 13.6772567,8.41296296 10.311649,11.9777778 C6.94604135,15.5425926 4.38603127,19.5708333 2.63161876,24.0625 C0.877206253,28.5541667 0,33.1171296 0,37.7513889 C0,42.599537 0.930912758,47.3763889 2.79273828,52.0819444 C4.65456379,56.7875 7.28618255,60.9939815 10.6875946,64.7013889 C14.0890066,68.4087963 18.1348966,71.3854167 22.8252648,73.63125 C27.5156329,75.8770833 32.6893596,77 38.3464448,77 Z M112.339806,77 C117.964401,77 123.144013,75.9305556 127.878641,73.7916667 C132.613269,71.6527778 136.68932,68.81875 140.106796,65.2895833 C143.524272,61.7604167 146.194175,57.6965278 148.116505,53.0979167 C150.038835,48.4993056 151,43.7046296 151,38.7138889 C151,33.8657407 150.092233,29.124537 148.276699,24.4902778 C146.461165,19.8560185 143.880259,15.7208333 140.533981,12.0847222 C137.187702,8.44861111 133.165049,5.52546296 128.466019,3.31527778 C123.76699,1.10509259 118.533981,0 112.76699,0 C107.142395,0 101.962783,1.05162037 97.2281553,3.15486111 C92.4935275,5.25810185 88.3996764,8.07430556 84.9466019,11.6034722 C81.4935275,15.1326389 78.8058252,19.2143519 76.8834951,23.8486111 C74.961165,28.4828704 74,33.2953704 74,38.2861111 C74,43.2055556 74.9255663,47.9824074 76.776699,52.6166667 C78.6278317,57.2509259 81.2265372,61.368287 84.5728155,64.96875 C87.9190939,68.569213 91.9417476,71.474537 96.6407767,73.6847222 C101.339806,75.8949074 106.572816,77 112.339806,77 Z M112.553846,59 C109.538462,59 106.935897,58.42959 104.746154,57.2887701 C102.55641,56.1479501 100.74359,54.6506239 99.3076923,52.7967914 C97.8717949,50.942959 96.7948718,48.8217469 96.0769231,46.4331551 C95.3589744,44.0445633 95,41.5668449 95,39 C95,36.5044563 95.3410256,34.0623886 96.0230769,31.6737968 C96.7051282,29.285205 97.7641026,27.1461676 99.2,25.2566845 C100.635897,23.3672014 102.448718,21.8520499 104.638462,20.7112299 C106.828205,19.57041 109.430769,19 112.446154,19 C115.389744,19 117.95641,19.5525847 120.146154,20.657754 C122.335897,21.7629234 124.166667,23.2245989 125.638462,25.0427807 C127.110256,26.8609626 128.205128,28.9643494 128.923077,31.3529412 C129.641026,33.741533 130,36.2192513 130,38.7860963 C130,41.2816399 129.658974,43.741533 128.976923,46.1657754 C128.294872,48.5900178 127.253846,50.7468806 125.853846,52.6363636 C124.453846,54.5258467 122.641026,56.0588235 120.415385,57.2352941 C118.189744,58.4117647 115.569231,59 112.553846,59 Z M179.981013,77 L179.981013,39.6422535 L210.322785,77 L227,77 L227,1 L206.018987,1 L206.018987,39.6422535 L175.35443,1 L159,1 L159,77 L179.981013,77 Z M295,77 L295,58.8028169 L261.810277,58.8028169 L261.810277,46.8140845 L289.343874,46.8140845 L289.343874,29.9014085 L261.810277,29.9014085 L261.810277,19.1971831 L294.039526,19.1971831 L294.039526,1 L241,1 L241,77 L295,77 Z M337.346445,77 C340.568835,77 343.880736,76.6078704 347.282148,75.8236111 C350.68356,75.0393519 353.870146,73.8986111 356.841906,72.4013889 C359.813666,70.9041667 362.463187,69.050463 364.790469,66.8402778 C367.117751,64.6300926 368.854261,62.1347222 370,59.3541667 L370,59.3541667 L352.921331,49.1944444 C352.276853,50.9055556 351.399647,52.3493056 350.289713,53.5256944 C349.179778,54.7020833 347.926626,55.6645833 346.530257,56.4131944 C345.133888,57.1618056 343.683812,57.6965278 342.18003,58.0173611 C340.676248,58.3381944 339.20827,58.4986111 337.776097,58.4986111 C335.054967,58.4986111 332.60237,57.9460648 330.418306,56.8409722 C328.234241,55.7358796 326.390318,54.2564815 324.886536,52.4027778 C323.382753,50.5490741 322.237015,48.4101852 321.449319,45.9861111 C320.661624,43.562037 320.267776,41.0310185 320.267776,38.3930556 C320.267776,36.0402778 320.607917,33.6696759 321.2882,31.28125 C321.968482,28.8928241 323.006808,26.7539352 324.403177,24.8645833 C325.799546,22.9752315 327.589763,21.4423611 329.773828,20.2659722 C331.957892,19.0895833 334.553707,18.5013889 337.561271,18.5013889 C338.993444,18.5013889 340.479324,18.6439815 342.018911,18.9291667 C343.558497,19.2143519 345.044377,19.7134259 346.476551,20.4263889 C347.908724,21.1393519 349.215582,22.1018519 350.397126,23.3138889 C351.578669,24.5259259 352.527484,26.0587963 353.24357,27.9125 L353.24357,27.9125 L369.248109,16.5763889 C366.598588,11.5856481 362.5706,7.57523148 357.164145,4.54513889 C351.75769,1.5150463 345.366616,0 337.990923,0 C331.832577,0 326.354513,1.10509259 321.556732,3.31527778 C316.758951,5.52546296 312.677257,8.41296296 309.311649,11.9777778 C305.946041,15.5425926 303.386031,19.5708333 301.631619,24.0625 C299.877206,28.5541667 299,33.1171296 299,37.7513889 C299,42.599537 299.930913,47.3763889 301.792738,52.0819444 C303.654564,56.7875 306.286183,60.9939815 309.687595,64.7013889 C313.089007,68.4087963 317.134897,71.3854167 321.825265,73.63125 C326.515633,75.8770833 331.68936,77 337.346445,77 Z M415.046358,77 L415.046358,19.1971831 L437,19.1971831 L437,1 L372,1 L372,19.1971831 L394.061258,19.1971831 L394.061258,77 L415.046358,77 Z M452.353204,77 L456.859911,62.1211268 L477.140089,62.1211268 L481.754098,77 L503,77 L476.603577,1 L457.503726,1 L431,77 L452.353204,77 Z M474,48 L460,48 L467.162791,24 L474,48 Z" id="CONECTA"></path>
            </g>
        </g>
        <g id="orange_outline" opacity="0.3" transform="translate(159.000000, 1333.000000)">
            <g id="Group-14">
                <g id="Combined-Shape">
                    <use fill="#FFFFFF" fill-rule="evenodd" style="mix-blend-mode: multiply;" xlink:href="#path-3"></use>
                    <use stroke="#FB9C24" stroke-width="1" xlink:href="#path-3"></use>
                </g>
                <polyline id="Line-8" stroke="#FB9C24" stroke-linecap="square" points="95 196 95 97.8695652 190 48"></polyline>
                <line x1="2" y1="48" x2="94.5" y2="97.5" id="Line-9" stroke="#FB9C24" stroke-linecap="square"></line>
            </g>
        </g>
        <line x1="308.5" y1="1453.5" x2="697.5" y2="1657.5" id="Line-13" stroke="#C3C5D2" opacity="0.7" stroke-linecap="square"></line>
        <g id="blue_outline" opacity="0.3" transform="translate(674.000000, 1620.000000)">
            <g id="Combined-Shape-Copy-2">
                <use fill="#FFFFFF" fill-rule="evenodd" style="mix-blend-mode: multiply;" xlink:href="#path-4"></use>
                <use stroke="#3B65E6" stroke-width="1" xlink:href="#path-4"></use>
            </g>
            <polyline id="Line-8-Copy-2" stroke="#3B65E6" stroke-width="1" stroke-linecap="square" points="95 196 95 97.8695652 190 48"></polyline>
            <line x1="2" y1="48" x2="94.5" y2="97.5" id="Line-9-Copy-2" stroke="#3B65E6" stroke-width="1" stroke-linecap="square"></line>
        </g>
        <g id="blue_square" transform="translate(37.000000, 273.000000)">
            <g id="Group-20-Copy-3" transform="translate(-3.538462, 0.304762)">
                <path d="M4.06218333,11.7166792 L4.11571729,3.78771989 L11.6554124,1.70974346e-13 L19.1503108,3.78771989 L19.0967769,11.7166792 L11.5570818,15.5043991 L4.06218333,11.7166792 Z" id="Combined-Shape" fill="#3B65E6"></path>
                <polygon id="Rectangle" fill="#4D75F1" transform="translate(7.829549, 9.652910) rotate(-45.000000) translate(-7.829549, -9.652910) " points="9.35078927 2.87951908 3.70631416 8.44828574 6.32768524 16.4263017 11.9527831 10.9402643"></polygon>
                <polygon id="Rectangle" fill="#325DE1" transform="translate(15.382946, 9.675309) rotate(-45.000000) translate(-15.382946, -9.675309) " points="8.55586197 11.0918038 16.5655539 13.744851 22.210029 8.17608429 14.1809599 5.60576645"></polygon>
            </g>
        </g>
        <g id="red_square" transform="translate(21.000000, 1620.000000)">
            <g id="Group-20-Copy-5" transform="translate(-3.538462, 0.304762)">
                <path d="M4.06218333,11.7166792 L4.11571729,3.78771989 L11.6554124,1.73194792e-13 L19.1503108,3.78771989 L19.0967769,11.7166792 L11.5570818,15.5043991 L4.06218333,11.7166792 Z" id="Combined-Shape" fill="#FF7B7A"></path>
                <polygon id="Rectangle" fill="#FB8887" transform="translate(7.829549, 9.652910) rotate(-45.000000) translate(-7.829549, -9.652910) " points="9.35078927 2.87951908 3.70631416 8.44828574 6.32768524 16.4263017 11.9527831 10.9402643"></polygon>
                <polygon id="Rectangle" fill="#F06766" transform="translate(15.382946, 9.675309) rotate(-45.000000) translate(-15.382946, -9.675309) " points="8.55586197 11.0918038 16.5655539 13.744851 22.210029 8.17608429 14.1809599 5.60576645"></polygon>
            </g>
        </g>
    </g>
</svg>